<svg version="1.1" id="Layer_1" xmlns="http://www.w3.org/2000/svg" xmlns:xlink="http://www.w3.org/1999/xlink" x="0px" y="0px"
	 width="100%" viewBox="0 0 1024 1024" enable-background="new 0 0 1024 1024" xml:space="preserve">
<path fill="#000000" opacity="1.000000" stroke="none" 
	d="
M213.561157,595.298279 
	C210.323059,576.665283 207.746017,558.387268 206.669754,539.922668 
	C204.178345,497.178833 202.912888,454.401031 202.419708,411.585175 
	C202.295212,400.778015 201.852982,389.944275 201.717926,379.120575 
	C201.391510,352.964355 200.829422,326.803467 201.110779,300.652557 
	C201.180878,294.135681 199.516724,289.458008 195.591721,284.499176 
	C187.544235,274.332031 179.685471,263.891815 175.775848,251.226257 
	C172.932602,242.015320 174.502609,233.915909 181.896881,227.113281 
	C187.297729,222.144562 192.591019,217.049240 198.571411,212.802246 
	C201.602463,210.649719 202.861023,208.271194 202.800262,204.503784 
	C202.590668,191.507706 202.792328,178.505585 202.696457,165.506805 
	C202.655579,159.962341 204.334137,155.260620 207.528229,150.660294 
	C217.594986,136.161575 231.686951,127.152313 247.309357,119.825516 
	C279.281708,104.830704 313.017181,95.094170 346.905121,85.738220 
	C370.823120,79.134834 394.839081,72.981277 419.542938,70.103996 
	C430.945831,68.775887 442.384796,67.591263 453.841339,66.929634 
	C470.765472,65.952248 487.720093,64.921944 504.661407,64.927200 
	C564.718506,64.945831 623.755920,71.918114 681.375488,89.989182 
	C713.826904,100.166817 746.369141,109.773186 776.630920,125.688034 
	C789.358948,132.381775 799.207947,142.091797 807.050964,153.950516 
	C811.102783,160.076843 809.227356,167.261642 809.897278,173.940887 
	C810.845093,183.389908 809.790894,192.906860 809.323914,202.385025 
	C809.092346,207.084732 810.512207,210.581696 814.570190,213.441208 
	C819.178345,216.688461 823.177246,220.786987 827.561340,224.368149 
	C840.747192,235.139053 840.413330,246.106628 832.943237,260.371399 
	C827.757751,270.273468 821.400024,279.482391 814.193726,288.049438 
	C812.020569,290.632996 811.244873,293.332611 811.251892,296.703979 
	C811.302246,320.869415 811.372864,345.038116 811.039001,369.200256 
	C810.587830,401.846802 810.111694,434.499451 809.024414,467.128754 
	C808.098816,494.905975 807.563904,522.725220 805.095520,550.422607 
	C801.536804,590.354919 793.137756,629.321411 780.589233,667.394836 
	C780.432983,667.868774 780.372498,668.380554 780.172485,668.832825 
	C775.776794,678.773010 775.307251,687.535583 783.301636,696.846436 
	C791.299927,706.161682 790.572571,717.230652 784.091309,727.994507 
	C778.782898,736.810730 771.836365,744.205322 765.015076,751.694824 
	C751.552429,766.476074 737.609009,780.749390 722.040833,793.445923 
	C715.535461,798.751526 710.519409,805.880554 704.812195,812.167908 
	C685.639038,833.289917 665.517029,853.431580 643.395813,871.501099 
	C602.061584,905.264648 557.213135,933.596558 509.802734,957.978882 
	C507.143463,959.346497 504.860962,959.162537 502.265442,957.829712 
	C423.060822,917.155151 351.947357,866.016174 294.253967,797.431152 
	C286.605194,788.338379 276.183563,782.193115 268.013092,773.594910 
	C257.109039,762.120056 246.056244,750.781372 235.861923,738.661072 
	C230.467804,732.247864 225.569473,725.355652 223.903473,716.994202 
	C221.908463,706.981750 226.461395,698.623474 232.591461,691.366821 
	C236.322845,686.949707 236.568115,683.031494 235.015076,677.753784 
	C228.440323,655.411133 221.024689,633.292603 216.258820,610.447144 
	C215.241257,605.569458 214.487656,600.636658 213.561157,595.298279 
M237.645355,313.854675 
	C244.412308,320.909912 251.080139,328.068542 258.225677,334.315125 
	C317.570587,245.641891 399.379700,195.834061 506.170624,195.907288 
	C612.836060,195.980423 694.894897,245.322311 753.963562,333.985718 
	C754.401794,333.706238 755.183716,333.372467 755.754211,332.820190 
	C779.029236,310.289581 801.241516,286.851532 817.837280,258.738556 
	C823.592773,248.988876 822.934448,244.943542 815.091248,236.506592 
	C802.482666,222.943405 787.196594,212.797134 771.740540,202.960693 
	C739.861572,182.672516 705.031189,169.000717 668.972168,158.329865 
	C623.299866,144.814209 577.408508,132.460220 529.357056,130.635315 
	C502.326813,129.608734 475.384644,130.024033 448.598267,133.638123 
	C408.714294,139.019409 370.144012,150.020325 331.838257,162.021088 
	C302.009979,171.365952 273.287537,183.245041 246.465469,199.411621 
	C229.031601,209.919601 212.134735,221.214462 197.878540,235.946121 
	C189.581909,244.519470 189.218246,249.079971 195.109482,259.488831 
	C206.454300,279.533264 221.901077,296.361023 237.645355,313.854675 
M428.003754,751.408264 
	C459.044312,759.099121 490.472443,762.886658 522.487793,760.853149 
	C543.794861,759.499695 565.004028,757.159790 585.480835,750.957947 
	C615.479492,741.872192 643.580750,728.839844 668.704773,709.674988 
	C681.967407,699.558167 695.681458,689.967712 706.777954,677.430786 
	C743.880005,635.512634 770.684143,588.358521 780.598145,532.457581 
	C785.949768,502.282196 785.562500,472.162354 781.825989,441.976074 
	C779.398743,422.366486 772.937500,403.805878 766.115540,385.341644 
	C750.596069,343.336121 727.409668,306.715027 693.337769,277.060669 
	C659.590332,247.688797 621.688354,226.423065 578.511108,214.593658 
	C539.917236,204.019974 500.988251,201.442642 461.406555,208.425797 
	C413.340668,216.905762 370.266205,236.197586 331.919830,266.306244 
	C303.088196,288.944153 278.910980,315.723602 262.597076,348.603088 
	C245.000717,384.067352 230.684143,420.756317 228.781021,461.143402 
	C227.775604,482.479950 226.989685,503.786804 230.565674,524.914368 
	C236.703537,561.177856 248.055725,595.548157 268.011017,626.837341 
	C287.596680,657.546936 309.938080,685.365112 339.879272,707.057129 
	C366.788605,726.552612 395.570312,741.487915 428.003754,751.408264 
M258.647919,743.872925 
	C260.032776,745.535767 261.335876,747.275391 262.814606,748.850037 
	C294.810577,782.921997 331.848633,809.824585 374.997131,828.175171 
	C415.805603,845.530518 458.717590,851.745911 502.626495,852.488159 
	C519.089539,852.766418 535.549561,851.574219 551.936646,849.832092 
	C585.304260,846.284912 617.286743,837.769104 647.782166,823.572510 
	C687.153015,805.244141 721.035461,779.536865 750.441162,747.818726 
	C758.582642,739.037048 765.885925,729.506165 771.553040,718.805725 
	C775.704224,710.967468 774.981812,704.043701 769.531555,697.069153 
	C762.235413,687.732300 754.086853,679.161438 746.310059,670.257812 
	C742.749695,666.181580 739.159241,662.096680 735.037476,658.805725 
	C676.525452,733.373535 599.939697,770.546875 506.270782,770.555420 
	C412.444763,770.563965 335.681824,733.395874 277.434052,658.910706 
	C276.756165,659.398315 275.998779,659.775879 275.458923,660.355957 
	C264.115601,672.542786 252.697281,684.658447 242.498276,697.859619 
	C237.278748,704.615540 237.196304,711.433105 241.034119,718.826050 
	C245.677994,727.771790 251.771378,735.650391 258.647919,743.872925 
M351.406647,141.747025 
	C397.554810,127.954292 444.615387,119.820503 492.838135,118.687202 
	C522.863892,117.981560 552.781311,119.554070 582.452820,123.952667 
	C611.284119,128.226715 639.630005,134.979965 667.472168,143.683945 
	C711.452454,157.432983 754.516968,173.308426 793.572144,198.421295 
	C794.879089,199.261642 796.106506,200.707153 798.651611,199.724838 
	C798.446411,187.639359 799.232178,175.376862 798.177124,163.112595 
	C798.004456,161.105469 796.994629,159.346237 795.949646,157.604218 
	C790.305481,148.195648 782.401001,141.246521 772.810669,136.105469 
	C742.367554,119.786041 709.501038,110.105682 676.663818,100.020805 
	C624.003113,83.847748 570.267517,76.304626 515.311646,76.188820 
	C498.142303,76.152641 480.998901,76.672112 463.850616,77.294006 
	C449.876953,77.800774 435.983887,79.293434 422.098724,80.807976 
	C398.690033,83.361298 375.942291,89.106575 353.291779,95.311882 
	C320.846161,104.200630 288.413666,113.137413 257.700195,127.185677 
	C245.287888,132.863037 232.590805,138.234436 223.180222,148.693085 
	C219.201599,153.114807 214.607788,157.575089 214.362869,163.938583 
	C213.933746,175.087936 214.126480,186.261536 214.089203,197.425095 
	C214.085968,198.392578 214.064560,199.468872 215.227402,200.008636 
	C217.005341,199.966888 218.223419,198.719101 219.613968,197.858749 
	C228.682556,192.247772 237.707977,186.539795 247.290497,181.843735 
	C280.568054,165.535599 315.042542,152.301056 351.406647,141.747025 
M423.388824,856.293335 
	C392.246124,848.376953 361.671417,838.928345 333.463135,822.851135 
	C334.762543,824.870422 336.218323,826.609558 337.815399,828.207397 
	C386.089813,876.505371 442.122009,913.927185 502.271576,945.600647 
	C505.295837,947.193115 507.660339,947.038635 510.591003,945.456970 
	C524.073669,938.180359 537.587585,930.962280 550.692810,923.017395 
	C594.254700,896.608337 635.683228,867.388306 671.636963,830.979187 
	C673.797058,828.791687 676.528198,827.084717 677.984070,823.463318 
	C676.469543,824.130005 675.416504,824.511353 674.440063,825.035400 
	C650.246521,838.018677 624.447205,846.565979 598.063416,853.917542 
	C571.061523,861.441345 543.626587,864.719360 515.776001,865.315247 
	C503.305389,865.582153 490.833649,865.412659 478.345184,864.505737 
	C460.063934,863.178162 441.937347,861.212524 423.388824,856.293335 
M780.185425,326.684479 
	C774.982727,331.846954 770.019592,337.285614 764.495239,342.077240 
	C760.643066,345.418518 760.466064,348.247192 762.519592,352.781067 
	C779.214172,389.639893 791.951477,427.303284 793.820251,468.528992 
	C795.523254,506.100128 790.165100,542.137512 778.527893,577.495850 
	C770.670837,601.368896 759.037292,623.433472 744.590454,644.011536 
	C743.424622,645.672302 741.113586,647.553772 742.974792,649.738525 
	C750.366150,658.414490 757.976196,666.903992 766.361816,676.436401 
	C768.715149,668.807617 770.569946,662.476685 772.617676,656.208679 
	C785.703003,616.154785 792.771057,574.949036 795.470398,533.010864 
	C797.062805,508.270172 797.967773,483.467194 798.464355,458.677856 
	C799.448425,409.558472 799.941345,360.429199 800.602600,311.303528 
	C800.625122,309.629303 800.902710,307.825592 799.816040,305.892944 
	C793.228821,312.875488 786.954102,319.526825 780.185425,326.684479 
M242.361038,599.000916 
	C239.426102,591.567749 236.142822,584.250916 233.615433,576.681641 
	C221.473053,540.316711 215.833679,503.049164 218.847778,464.675385 
	C219.927048,450.934509 221.104309,437.216400 224.326172,423.734955 
	C230.275345,398.841553 239.425507,375.119293 250.296814,352.038452 
	C252.285553,347.816162 251.819946,345.254791 248.286667,342.257782 
	C239.895340,335.139984 232.321548,327.148499 224.908325,319.016083 
	C221.024323,314.755249 217.060760,310.566925 213.050446,306.256989 
	C211.756790,307.890564 212.184311,309.444489 212.202103,310.856934 
	C212.546326,338.172302 212.283936,365.486359 212.893433,392.808380 
	C213.818008,434.253937 214.422256,475.702271 216.270859,517.123535 
	C217.160965,537.067932 218.973419,556.909424 221.489716,576.709412 
	C225.577667,608.876038 234.753220,639.790527 244.222870,670.642456 
	C244.693848,672.176819 244.834747,673.925720 246.925293,675.360168 
	C253.955017,667.463135 260.933228,659.480713 268.093781,651.665283 
	C270.314484,649.241577 270.204834,647.419678 268.410767,644.741333 
	C258.766998,630.344116 249.328583,615.809509 242.361038,599.000916 
z"/>
<path fill="#000000" opacity="1.000000" stroke="none" 
	d="
M710.199341,206.255219 
	C712.635071,201.657410 715.111389,197.532883 717.994690,193.627182 
	C720.905273,189.684570 724.746094,188.533447 729.005920,190.214264 
	C746.129456,196.970840 762.561218,205.098877 776.272827,217.653458 
	C785.682007,226.268738 786.025146,236.200180 778.606934,246.651917 
	C771.517273,256.640839 762.242188,260.322479 750.670166,257.340790 
	C750.670166,263.883606 750.151428,270.030396 750.786865,276.055481 
	C751.846436,286.101349 750.514893,295.989960 749.802795,305.924988 
	C749.657166,307.955750 749.324158,310.492493 746.638794,311.077423 
	C744.291443,311.588715 742.997803,309.741608 741.724426,308.244995 
	C738.702026,304.692535 735.711914,301.107880 732.837097,297.435822 
	C729.892273,293.674255 728.966553,289.548645 730.349182,284.773560 
	C733.454712,274.047943 732.776855,263.002747 732.582336,252.028473 
	C732.526367,248.872696 731.051697,246.427246 728.135315,244.723801 
	C723.832825,242.210678 719.723511,239.366791 714.820801,236.205170 
	C711.800415,241.772293 708.800293,247.049683 706.036926,252.448288 
	C700.284485,263.686371 699.138550,263.958527 689.538696,255.818893 
	C683.879822,251.020782 683.344727,248.851868 688.011902,242.299973 
	C696.153992,230.870117 703.068176,218.719803 710.199341,206.255219 
M739.412170,215.134354 
	C728.771118,209.149948 727.888123,209.527298 723.331787,220.881119 
	C722.110474,223.924500 722.625061,225.860641 725.465515,227.465927 
	C731.382629,230.809982 737.207397,234.317139 743.107178,237.692337 
	C745.738403,239.197647 748.560608,240.205780 751.662964,239.653076 
	C755.320862,239.001450 758.292908,237.273148 759.372986,233.496231 
	C760.355713,230.059708 758.140686,227.883224 755.788940,225.910660 
	C750.937988,221.841934 745.324646,218.920547 739.412170,215.134354 
z"/>
<path fill="#000000" opacity="1.000000" stroke="none" 
	d="
M280.760437,267.863159 
	C286.128357,264.633362 290.122253,260.373535 294.260803,256.267944 
	C296.337463,254.207825 297.246124,251.807678 296.508362,249.014191 
	C295.615326,245.632782 293.927643,243.808487 289.980988,245.606827 
	C281.208588,249.604080 272.506409,253.793777 262.861755,255.510498 
	C256.254120,256.686646 250.974945,254.506317 246.859436,249.615585 
	C241.571457,243.331558 237.732483,236.071442 234.482346,228.586273 
	C231.959106,222.775177 233.477814,217.118530 238.653488,212.843018 
	C250.989136,202.652878 265.141876,195.794205 280.127747,190.333038 
	C287.510834,187.642471 294.783081,196.831192 294.360748,202.383255 
	C294.073181,206.163864 291.448608,207.212677 288.491882,207.073334 
	C274.624817,206.419754 265.518646,215.589706 255.590057,222.919022 
	C252.858139,224.935730 252.589783,228.564667 253.737106,231.696945 
	C255.032318,235.233002 258.270538,236.639740 261.753906,236.590790 
	C270.364929,236.469849 278.391968,233.624832 286.353699,230.663208 
	C289.940002,229.329163 293.468628,227.839294 297.060699,226.521729 
	C301.534302,224.880814 305.341003,226.245163 308.248413,229.731140 
	C312.317841,234.610321 315.578339,240.014145 317.934967,245.964218 
	C319.904358,250.936569 319.550781,255.610901 315.837769,259.446503 
	C305.994904,269.614349 296.112518,279.756287 285.903748,289.552002 
	C281.193695,294.071503 276.211395,293.329468 272.057922,288.376526 
	C269.600555,285.446136 267.213470,282.441589 265.009216,279.319000 
	C263.306458,276.906830 262.469360,274.209747 264.373077,271.418518 
	C266.339386,268.535461 269.188995,267.780823 272.284790,268.830414 
	C275.235565,269.830902 277.825531,269.361816 280.760437,267.863159 
z"/>
<path fill="#000000" opacity="1.000000" stroke="none" 
	d="
M696.094482,181.416077 
	C699.912415,202.986618 691.806702,220.230804 678.195618,235.592682 
	C674.941162,239.265732 670.622742,240.212570 666.374695,238.018097 
	C654.703735,231.989059 643.124268,225.765015 631.715027,219.256256 
	C627.409729,216.800186 625.882690,212.645004 627.589050,207.604584 
	C632.298706,193.692719 639.352722,181.173569 649.731140,170.708023 
	C655.232056,165.160934 661.790588,163.312347 669.389771,166.174927 
	C675.145142,168.342926 681.023926,170.191650 686.734924,172.466125 
	C690.828552,174.096497 694.376282,176.580948 696.094482,181.416077 
M649.571533,202.685181 
	C649.047913,205.842590 651.048401,207.784164 653.220947,209.295013 
	C656.628784,211.664963 660.173950,213.900742 663.874451,215.770905 
	C668.621948,218.170197 671.651001,217.090118 674.159058,212.319794 
	C676.563599,207.746292 678.530212,202.967697 679.691223,197.901367 
	C682.190063,186.997223 680.981323,184.656693 670.656616,180.345413 
	C665.651306,178.255341 662.445007,178.953018 659.381104,183.407654 
	C655.413635,189.175995 651.934387,195.247894 649.571533,202.685181 
z"/>
<path fill="#000000" opacity="1.000000" stroke="none" 
	d="
M361.056885,163.838654 
	C369.823669,178.398071 375.640869,193.691330 378.441742,210.076691 
	C379.508911,216.319839 377.025085,221.117783 371.579468,224.358353 
	C364.718323,228.441315 357.930511,232.655457 350.969360,236.560410 
	C342.503845,241.309265 335.810394,240.314148 328.739044,233.638550 
	C324.948090,230.059784 322.141724,225.711472 319.358765,221.375763 
	C312.393799,210.524872 307.527588,198.679581 303.525360,186.494308 
	C301.505432,180.344299 303.528137,177.674438 311.101868,175.161621 
	C315.897980,173.570343 317.867218,174.604446 320.027405,180.888718 
	C324.385468,193.566971 330.269135,205.427612 338.046051,216.349213 
	C341.564667,221.290649 342.976685,221.670456 348.424255,219.013504 
	C350.218536,218.138367 351.982788,217.201736 353.764069,216.299850 
	C358.167267,214.070419 359.936279,210.730652 358.998840,205.683792 
	C357.309448,196.588547 353.240906,188.355499 350.092072,179.789825 
	C349.175446,177.296387 347.871704,174.946655 346.923859,172.462936 
	C345.765198,169.426926 343.789490,166.116837 347.279419,163.419693 
	C351.511017,160.149353 357.321136,160.359406 361.056885,163.838654 
z"/>
<path fill="#000000" opacity="1.000000" stroke="none" 
	d="
M533.657227,159.800293 
	C533.469421,155.145096 534.138123,151.033173 534.747559,146.916245 
	C535.768555,140.018921 538.594177,137.288071 545.492126,137.989822 
	C557.728210,139.234665 570.010925,140.395355 581.990417,143.380966 
	C591.717346,145.805176 595.154480,149.308411 595.329468,156.426727 
	C595.581177,166.669037 590.761475,174.447754 582.404053,177.317383 
	C581.648376,177.576843 580.928711,177.941177 579.972595,178.351028 
	C581.099915,182.010040 583.736267,184.408646 585.762573,187.150894 
	C588.367126,190.675720 590.459412,194.444000 591.775879,198.592636 
	C592.853821,201.989700 591.428101,203.899719 587.822632,203.465469 
	C581.139099,202.660492 574.770447,201.486343 571.982849,193.824478 
	C570.268982,189.113785 566.709656,185.415985 563.521484,181.539810 
	C560.072876,177.346970 555.664062,177.048950 550.874878,177.328842 
	C549.020264,177.437241 548.147644,178.489075 547.922485,180.119156 
	C547.627808,182.253281 547.385742,184.409836 547.344116,186.561050 
	C547.205322,193.736298 546.275818,194.723816 539.751465,194.280029 
	C532.430908,193.782089 530.769714,191.839767 531.449097,185.115219 
	C532.284790,176.843140 532.927429,168.551529 533.657227,159.800293 
M560.419678,164.814865 
	C564.554138,165.222488 568.679871,166.109787 572.848877,165.405045 
	C575.452454,164.964935 578.384094,164.722427 578.703430,161.137314 
	C579.010681,157.687561 576.951416,155.834839 573.965942,155.027771 
	C567.361023,153.242218 560.588806,152.447220 553.769226,152.030045 
	C552.541748,151.954956 551.553833,152.106506 550.834045,153.356796 
	C547.682007,158.832336 550.690491,164.405441 557.010193,164.682663 
	C557.842102,164.719147 558.674805,164.738495 560.419678,164.814865 
z"/>
<path fill="#000000" opacity="1.000000" stroke="none" 
	d="
M457.706207,161.026871 
	C457.206238,156.440918 456.700836,152.317917 456.241364,148.189804 
	C455.584625,142.289856 458.284302,138.488220 464.049744,137.585876 
	C480.721283,134.976593 497.535858,134.791122 514.349243,135.047348 
	C520.398254,135.139526 522.041321,136.998260 521.811096,141.945541 
	C521.524902,148.096970 520.356934,149.216095 513.767090,149.269989 
	C502.106079,149.365341 490.441010,149.238663 478.784485,149.504807 
	C472.932587,149.638428 472.263123,150.805008 473.111542,155.508179 
	C473.558167,157.984009 474.649750,158.899124 477.092834,158.840622 
	C481.588135,158.733017 486.087952,158.818161 490.585907,158.818222 
	C493.744324,158.818268 496.234467,159.587646 496.303406,163.449860 
	C496.371613,167.270142 495.637604,170.613617 491.106781,171.176132 
	C487.647308,171.605652 484.128601,171.543472 480.659515,171.916321 
	C478.620941,172.135391 476.107605,171.993668 476.308777,175.364075 
	C476.522827,178.949692 479.028442,177.992188 481.058136,177.920654 
	C491.871216,177.539566 502.652954,176.389038 513.493713,176.662094 
	C519.431946,176.811661 521.163513,178.223221 521.315186,183.247604 
	C521.498596,189.325729 520.007019,191.193115 513.876892,191.210052 
	C498.875885,191.251541 483.923370,191.672821 469.040680,193.849548 
	C464.350220,194.535538 461.170319,191.795532 460.499664,186.771210 
	C459.378143,178.369415 458.627808,169.918045 457.706207,161.026871 
z"/>
<path fill="#000000" opacity="1.000000" stroke="none" 
	d="
M406.665894,209.862183 
	C397.673370,212.968430 396.948822,212.839096 393.959076,204.239334 
	C389.103210,190.271729 384.847473,176.097687 379.263214,162.381165 
	C377.827911,158.855759 378.552429,155.224960 382.282837,154.000320 
	C397.515686,148.999603 412.615021,142.670929 429.174927,144.757462 
	C440.109833,146.135208 446.868011,154.700180 446.356201,165.662277 
	C446.012360,173.027206 441.069824,177.207626 435.313721,180.576279 
	C429.205200,184.151154 422.104889,184.965393 415.540466,187.290237 
	C413.536407,187.999969 411.304779,188.211075 409.750458,190.026505 
	C409.842896,192.775436 411.304688,195.073151 412.245636,197.525345 
	C415.357635,205.635025 414.950592,206.638626 406.665894,209.862183 
M425.684418,160.361923 
	C416.507629,159.603897 408.259033,162.921707 399.515411,165.616867 
	C400.466644,168.315048 401.193817,170.329025 401.886688,172.354767 
	C402.850220,175.171921 404.632416,176.307373 407.637421,175.467377 
	C413.237122,173.902054 418.930939,172.645599 424.466461,170.885849 
	C430.977264,168.816071 431.593475,165.128967 425.684418,160.361923 
z"/>
<path fill="#000000" opacity="1.000000" stroke="none" 
	d="
M622.719971,186.588379 
	C620.093933,193.467651 617.544800,199.959381 615.168884,206.513916 
	C613.762207,210.394806 611.410583,211.471146 607.436523,210.291199 
	C596.683228,207.098328 596.093506,206.243698 599.972656,195.857025 
	C604.793884,182.947937 609.375488,169.940735 615.065308,157.372421 
	C616.695129,153.772141 619.066895,151.245285 623.529907,152.067429 
	C629.697571,153.203598 631.367737,155.669601 630.045715,162.405243 
	C628.442627,170.572922 625.415527,178.332108 622.719971,186.588379 
z"/>
<path fill="#000000" opacity="1.000000" stroke="none" 
	d="
M398.015320,243.897583 
	C428.191559,230.542786 459.275116,223.125687 491.977600,221.477386 
	C565.049622,217.794312 628.547485,240.604538 682.973755,289.071960 
	C712.568115,315.426178 734.716003,347.218262 749.510193,383.954254 
	C759.057495,407.661377 765.137207,432.284088 767.438477,457.844940 
	C771.858826,506.943207 763.678650,553.773865 741.903564,597.951843 
	C715.380554,651.762695 674.990356,691.969421 621.144592,718.592529 
	C593.680664,732.171570 564.616821,740.288696 534.281433,743.812012 
	C515.720154,745.967712 497.157013,745.514404 478.503540,743.609802 
	C435.498047,739.218567 396.250214,724.619568 360.415466,700.915894 
	C323.729919,676.649536 295.305603,644.700317 274.581238,605.843872 
	C252.522720,564.485840 241.980286,520.332520 243.844421,473.635071 
	C246.372162,410.314545 268.559937,354.544281 311.093658,307.216248 
	C335.490356,280.069641 364.552307,259.268829 398.015320,243.897583 
M507.793762,334.699799 
	C506.469513,333.667023 507.008423,331.357483 504.822449,330.642670 
	C503.228485,331.446869 501.509705,332.439636 499.695496,333.206696 
	C493.339874,335.893768 493.152527,336.667633 497.774353,342.113403 
	C498.205566,342.621460 498.674255,343.099365 499.083801,343.623871 
	C503.835663,349.709930 501.523621,360.694122 494.420319,363.716949 
	C489.215607,365.931824 485.319092,369.266235 482.376373,373.913544 
	C481.515808,375.272614 480.590332,376.464386 478.821259,375.944153 
	C477.151276,375.453033 476.758820,373.986847 476.546387,372.411743 
	C476.241302,370.149353 476.721466,368.072998 477.936615,366.205902 
	C480.020874,363.003510 482.114807,359.800323 484.367035,356.716003 
	C487.416992,352.539185 486.878143,349.559052 482.158447,346.210388 
	C481.926605,346.638733 481.487335,347.065277 481.510834,347.464600 
	C481.870941,353.582733 480.788574,359.063141 475.290619,362.841431 
	C474.733215,363.224487 474.427307,364.304199 474.399231,365.074982 
	C474.158203,371.690338 469.051727,376.201080 467.081360,382.077301 
	C466.509155,383.783691 464.726440,384.847870 463.038849,385.652618 
	C461.629669,386.324615 460.092926,386.806702 458.989349,385.277435 
	C458.057892,383.986694 458.678802,382.682770 459.694305,381.693420 
	C463.170624,378.306763 463.729919,373.906677 464.307251,368.631622 
	C458.129486,371.280945 452.313721,373.531403 446.754456,376.297455 
	C444.924469,377.207947 443.475281,379.591644 444.864197,381.882233 
	C446.950958,385.323761 445.617401,388.367096 444.165314,391.336578 
	C441.339722,397.114716 438.117615,402.352325 433.255524,407.070282 
	C424.761597,415.312347 415.911682,422.300812 404.436279,425.678040 
	C398.211823,427.509888 391.939270,429.310394 385.940796,431.746460 
	C377.490753,435.178101 369.106293,438.871674 361.767242,444.470947 
	C357.811218,447.489166 355.582947,452.295410 350.838135,454.585785 
	C346.570892,456.645630 343.099579,459.954559 340.632874,463.956360 
	C336.166046,471.203186 329.823120,477.486511 323.203766,481.483154 
	C314.688507,486.624481 309.807007,495.428619 301.090118,499.817780 
	C299.379883,500.678925 298.273743,502.180084 298.442963,504.277649 
	C298.639984,506.720123 300.820526,506.837616 302.432922,507.437042 
	C303.478668,507.825745 304.727509,507.674225 305.886200,507.752136 
	C313.250793,508.247162 319.513824,505.530518 326.118805,502.389343 
	C335.160858,498.089050 345.226044,495.994568 353.610199,490.060974 
	C354.784485,489.229950 356.357635,488.816467 357.808502,488.551971 
	C361.021362,487.966278 363.169067,489.891846 365.014160,492.130676 
	C366.260590,493.643066 366.984192,495.697021 365.460693,497.149597 
	C359.972565,502.382294 360.462830,509.787018 357.973297,516.105103 
	C360.117279,517.284973 361.152740,515.943298 362.340332,514.716248 
	C366.334106,510.589752 368.998932,510.547333 373.338226,514.488403 
	C375.063202,516.055054 376.669281,517.756653 378.439056,519.268555 
	C379.593719,520.255005 380.906342,521.033203 382.453125,519.750916 
	C387.869995,515.260559 394.575714,514.048584 401.148254,512.601990 
	C403.925842,511.990601 406.273346,510.743439 407.707458,508.434326 
	C410.689575,503.632599 415.342590,501.988098 420.393555,500.376099 
	C424.875305,498.945801 429.545746,499.269012 434.016846,497.768524 
	C442.590057,494.891418 448.142548,486.521088 457.503357,485.185791 
	C458.095306,485.101379 458.558228,483.994751 459.049194,483.339722 
	C462.217010,479.113586 465.307373,474.858246 469.610107,471.609283 
	C473.844604,468.411926 477.591827,464.846100 480.802917,460.391785 
	C484.018707,455.931030 489.807220,452.356049 494.257294,450.807861 
	C501.109741,448.423859 509.305420,444.668671 517.213257,449.771088 
	C519.084717,450.978607 522.176331,450.873383 521.693359,454.061279 
	C521.251282,456.979156 518.736694,457.846924 516.099609,458.134064 
	C514.155823,458.345703 511.920471,457.634918 510.427368,459.373657 
	C504.072174,466.774567 494.776459,471.429260 491.377869,481.705780 
	C489.546631,487.243103 485.592407,487.054932 481.821259,481.344543 
	C483.637817,488.782532 481.248993,495.558472 482.765289,503.440948 
	C486.694183,499.696564 487.963684,496.056030 490.795776,493.682220 
	C492.376923,492.356934 494.216919,490.505920 496.011139,491.396637 
	C501.157410,493.951294 506.484406,492.040894 511.671143,492.685242 
	C513.519287,492.914825 515.530334,492.955536 516.903015,494.104858 
	C525.808716,501.561340 535.151367,508.732910 539.186523,520.284058 
	C540.120239,522.956970 541.531067,524.276001 544.236633,523.944763 
	C548.336670,523.442871 552.482727,523.039185 556.479736,522.063599 
	C559.437744,521.341492 561.652466,521.715637 563.656982,523.979553 
	C564.993958,525.489502 566.647278,527.272522 568.749878,526.463928 
	C573.039368,524.814453 576.765137,525.563477 580.161621,528.423157 
	C582.394775,525.836548 582.586487,521.327698 585.241333,520.818298 
	C592.673035,519.392395 597.324768,512.921692 603.604065,510.907776 
	C610.515625,508.691040 618.283875,506.306610 626.050049,507.980347 
	C632.706482,509.414978 638.503174,508.016479 643.804077,503.736969 
	C646.863403,501.267120 650.549194,500.065582 654.542236,500.420288 
	C656.644287,500.607025 658.481628,499.992889 660.328552,499.206451 
	C662.202026,498.408691 664.213623,497.462921 665.746582,499.552612 
	C667.118347,501.422394 665.736877,502.989227 664.634277,504.472076 
	C661.165283,509.137421 663.789001,514.776672 662.230042,519.757935 
	C662.127747,520.084778 662.571106,520.683838 662.897827,521.025146 
	C664.041992,522.220337 674.766052,523.604309 676.201416,522.713684 
	C679.212463,520.845459 682.129395,520.906555 684.037964,523.978943 
	C686.136414,527.357178 687.380127,525.931213 689.197327,523.709900 
	C685.552979,521.328491 683.067078,518.643860 684.450134,514.112061 
	C685.683960,510.068970 689.478699,508.290070 692.216187,505.680389 
	C690.981628,503.863037 689.787415,504.471039 688.484985,504.940063 
	C683.573853,506.708740 681.693115,505.108246 682.400146,500.039795 
	C683.153564,494.639465 685.112610,490.396820 691.642822,490.360809 
	C689.555481,486.592621 689.555481,486.592621 684.615601,487.409119 
	C679.763550,488.211151 673.299988,484.340302 671.992310,479.719940 
	C671.742249,478.836334 671.685059,477.349701 672.204163,476.885895 
	C675.587219,473.863251 675.028870,469.005493 677.297119,465.795410 
	C681.433350,459.941559 680.823792,456.036499 674.404968,452.914764 
	C673.766418,452.604218 673.200562,451.626190 673.069092,450.875885 
	C672.260193,446.260284 668.771362,444.016235 665.328430,441.588745 
	C658.839844,437.013855 657.788147,431.409210 662.198303,424.951813 
	C663.052490,423.701111 663.548035,422.727448 662.742920,421.377472 
	C661.160400,418.724152 661.778503,416.243896 663.417908,413.903961 
	C665.614868,410.768158 663.893066,408.682831 661.058044,408.659668 
	C654.794922,408.608490 647.925171,407.865936 642.371826,410.083008 
	C626.328979,416.487793 616.275085,410.857025 607.759033,401.407410 
	C598.723633,391.381561 597.074280,378.460022 592.470398,366.715149 
	C591.084595,363.179840 590.970398,359.413666 586.996582,357.340881 
	C585.228271,356.418488 584.703491,354.189392 584.695435,352.063416 
	C584.690125,350.658600 585.373352,349.001282 583.081543,347.839325 
	C579.769409,351.291840 576.217468,351.823181 572.813293,347.452545 
	C571.750122,346.087616 570.087341,346.412689 568.650818,347.079987 
	C564.407410,349.051086 560.254333,350.302429 556.113892,346.722473 
	C555.184265,345.918701 553.872437,346.618835 552.765869,346.995728 
	C544.692261,349.745758 536.404968,348.976440 529.788757,344.406311 
	C524.242798,340.575439 518.495300,339.282562 512.379883,338.004242 
	C510.711945,337.655579 509.412567,336.536133 507.793762,334.699799 
M523.438538,554.008484 
	C522.908630,547.204651 521.601624,540.352600 522.020569,533.607727 
	C522.754272,521.796082 513.049866,517.222046 507.610443,509.033203 
	C504.855743,511.941895 502.952515,514.270935 500.731415,516.241699 
	C491.007568,524.869385 486.773346,535.125000 486.590424,548.589233 
	C486.253937,573.357300 483.844482,598.096802 482.315796,622.849243 
	C481.012817,643.947693 479.840790,665.054993 478.386902,686.143005 
	C477.857239,693.825928 478.883301,701.389282 479.230377,709.005920 
	C479.300781,710.549744 480.135223,711.428345 481.712341,711.608948 
	C497.424652,713.407593 513.136658,713.662170 528.855713,711.677734 
	C530.658569,711.450195 531.719788,710.465027 531.540344,708.732300 
	C530.951233,703.043518 533.138000,697.600098 532.707764,691.889954 
	C531.520569,676.132751 530.624268,660.353882 529.572754,644.586243 
	C527.579834,614.702454 525.558838,584.820496 523.438538,554.008484 
M405.381256,565.828247 
	C407.747192,564.276001 410.111145,562.720703 412.479370,561.171875 
	C432.678955,547.961304 452.886017,534.762146 473.074585,521.534668 
	C477.989258,518.314575 478.805054,514.648315 477.342468,508.825653 
	C476.313416,504.728973 474.481720,500.692993 475.259125,496.071991 
	C469.497803,494.275146 463.830811,493.114624 458.097382,492.357849 
	C455.521240,492.017792 453.082977,492.972046 451.385010,495.000214 
	C445.536407,501.986328 438.401245,506.054840 429.008301,505.457367 
	C427.903198,505.387024 426.680328,505.737915 425.647583,506.197876 
	C420.197876,508.625183 414.505310,510.624695 410.336029,515.276062 
	C408.252258,517.600769 405.600403,518.778809 402.322693,518.575562 
	C401.076721,518.498352 399.667603,518.948059 398.531769,519.539551 
	C390.854279,523.537781 383.205017,527.532959 375.318878,531.171082 
	C357.038879,539.604126 339.165192,548.917542 321.119568,557.859436 
	C311.959167,562.398499 302.567078,566.541687 294.596619,573.651733 
	C300.860748,588.869995 309.065582,603.087341 318.636871,616.548279 
	C319.454559,617.698242 320.572662,618.815796 321.944122,617.780334 
	C325.737732,614.916016 330.645325,614.796753 334.593689,612.189758 
	C357.930695,596.780701 381.370819,581.527832 405.381256,565.828247 
M684.053223,617.236145 
	C686.114258,618.265320 688.175354,619.294556 690.571594,620.491150 
	C700.762207,607.207947 709.235107,593.181091 715.842224,578.023560 
	C716.344543,576.871277 716.625488,575.471558 715.276917,574.978760 
	C711.387451,573.557312 709.258667,569.836060 705.609009,568.060669 
	C673.254944,552.322083 640.939697,536.503479 608.640137,520.653076 
	C605.403931,519.064941 602.664307,518.019775 600.243530,522.007568 
	C599.127808,523.845581 596.796692,524.940491 594.689087,525.090576 
	C590.212952,525.409180 587.702209,527.277527 586.207581,531.707825 
	C584.929504,535.496399 578.533264,538.248718 576.980469,536.151062 
	C574.197632,532.391724 570.847839,532.605164 567.025208,532.753784 
	C565.085022,532.829163 563.023438,532.263550 561.513855,530.753540 
	C558.862183,528.100891 556.106079,528.827026 552.673950,530.206848 
	C554.787720,531.734924 556.365173,532.950378 558.015503,534.057129 
	C591.493835,556.508362 624.931274,579.020996 658.500732,601.335205 
	C666.651367,606.753113 674.247375,613.090820 684.053223,617.236145 
M579.177612,658.215393 
	C568.819092,626.407288 557.938538,594.755371 548.349731,562.716858 
	C544.314880,549.235413 534.014404,541.278137 526.009888,531.088623 
	C527.427002,558.649597 529.341980,585.990295 531.204224,613.334534 
	C533.334045,644.608215 534.026245,675.989563 538.284607,707.105164 
	C538.561829,709.130615 538.735840,710.941223 541.359497,710.465820 
	C556.933411,707.643982 572.266663,703.897400 587.084595,698.247009 
	C588.533691,697.694336 589.887390,696.765564 589.394836,694.908020 
	C588.330994,690.895813 588.693665,686.695007 587.239441,682.683472 
	C584.404541,674.863403 582.020691,666.879944 579.177612,658.215393 
M473.113983,526.090088 
	C436.985870,549.675537 400.793549,573.163513 364.762909,596.897034 
	C351.374481,605.716003 337.000061,613.215515 325.701508,624.962280 
	C329.198608,631.781921 353.731659,657.193665 360.156250,660.716370 
	C361.264618,661.324158 362.445831,661.866760 363.302032,660.735718 
	C366.366364,656.687805 371.273682,655.010071 374.670746,651.185425 
	C402.218536,620.170288 429.717407,589.099915 457.919098,558.684143 
	C466.788879,549.117981 470.442596,537.927490 473.113983,526.090088 
M542.320984,532.333618 
	C544.928467,543.116577 548.751404,553.104797 557.258545,560.990417 
	C562.472534,565.823547 566.583496,571.830078 571.340149,577.175903 
	C596.087097,604.988647 618.923889,634.479431 645.098389,661.047607 
	C647.694092,663.682312 649.184326,663.362976 651.636292,661.353088 
	C661.959351,652.891113 671.496399,643.631531 680.209656,633.532104 
	C682.013855,631.440857 684.362122,629.661804 685.049988,626.793457 
	C680.560059,621.778076 676.056335,617.061890 670.269958,613.577881 
	C663.290161,609.375427 656.649170,604.609131 649.872864,600.070007 
	C616.407593,577.653259 582.950256,555.224487 549.472961,532.825684 
	C547.329041,531.391235 545.157410,529.405518 542.320984,532.333618 
M482.046295,563.797119 
	C482.624573,554.751770 483.202850,545.706421 483.849182,535.596558 
	C476.014008,543.579956 469.569794,550.653137 466.266754,560.652832 
	C456.403412,590.513733 445.628204,620.072144 435.420166,649.821106 
	C430.521912,664.095886 424.489624,678.029053 421.960754,693.061829 
	C421.620941,695.081909 421.207733,696.692505 423.491608,697.565491 
	C437.981598,703.104126 452.822510,707.362000 468.188202,709.657043 
	C469.494293,709.852112 471.466736,709.838684 471.396790,708.200256 
	C471.202820,703.655884 474.365936,700.093445 474.621124,695.761841 
	C475.970886,672.851379 477.330902,649.941467 478.615387,627.027283 
	C479.779144,606.266479 480.850403,585.500488 482.046295,563.797119 
M396.595154,420.905518 
	C405.763184,418.925262 414.128967,415.401733 420.813232,408.232849 
	C419.605865,407.345703 418.444305,406.419128 417.212555,405.597809 
	C390.316864,387.665009 363.358032,369.825775 336.564362,351.741882 
	C331.956055,348.631622 326.826233,347.011932 321.811523,344.401489 
	C311.332123,357.757538 303.164551,372.204468 296.099609,387.321472 
	C295.459381,388.691345 295.285614,390.172424 296.899109,390.685608 
	C301.201477,392.053986 303.588135,396.087463 307.396790,398.008728 
	C327.777161,408.289307 348.221985,418.442017 368.624756,428.678345 
	C370.869720,429.804718 372.914337,430.024567 375.256439,428.826599 
	C381.809906,425.474426 389.000214,423.777161 396.595154,420.905518 
M414.852966,399.624756 
	C415.418976,399.975159 415.987152,400.322113 416.550659,400.676544 
	C418.941742,402.180664 421.157135,404.337524 423.763580,405.035645 
	C427.414551,406.013580 427.189331,401.152191 429.671600,399.970581 
	C430.418671,399.614960 431.149170,399.192078 431.813354,398.700256 
	C435.369598,396.066681 436.518921,391.869476 437.999451,388.108704 
	C439.130493,385.235657 435.771790,383.607147 434.167267,381.673340 
	C421.626038,366.558319 409.225861,351.314484 396.280701,336.550110 
	C385.858215,324.662872 377.606506,310.670563 363.395386,301.778076 
	C350.398804,311.552338 338.974457,323.072754 328.579956,335.663025 
	C327.727814,336.695221 326.826324,338.137482 328.148132,339.213531 
	C330.727386,341.313171 331.967560,344.466339 334.900055,346.400330 
	C361.426147,363.894135 387.825073,381.580719 414.852966,399.624756 
M471.003479,357.475006 
	C474.768799,355.264801 475.013947,351.700745 474.759735,347.893036 
	C474.532227,344.485107 474.560211,340.785278 478.030701,339.129517 
	C480.833099,337.792450 480.938568,335.965057 480.807129,333.529327 
	C480.036682,319.251770 479.827576,304.919891 478.400482,290.709625 
	C477.331024,280.060577 478.839020,269.151550 474.885162,258.695892 
	C473.677521,255.502502 472.494720,254.895126 469.687134,255.244095 
	C454.753876,257.100281 440.430573,261.290985 426.388519,266.541504 
	C425.054718,267.040253 423.013000,267.744110 423.734436,269.554626 
	C425.317780,273.528046 424.035614,277.705139 425.404144,281.779785 
	C434.189056,307.935791 442.664520,334.195740 451.249786,360.418854 
	C451.853790,362.263733 452.070648,364.362976 454.191711,365.353607 
	C457.496246,364.159088 460.688080,362.411072 464.052338,361.965820 
	C467.075653,361.565643 468.913025,360.272705 471.003479,357.475006 
M388.050934,680.416687 
	C396.373749,685.187073 404.708466,689.932739 414.958069,693.792542 
	C432.790649,650.198425 445.873932,605.435852 461.117462,561.227478 
	C459.283234,562.024841 458.378326,563.418274 457.281677,564.639465 
	C436.721588,587.535156 416.031921,610.315674 395.608246,633.332275 
	C386.188873,643.947449 375.477753,653.551147 368.558502,666.816711 
	C374.041870,672.141113 380.891693,675.874023 388.050934,680.416687 
M603.858643,691.299927 
	C615.925537,685.581909 627.544617,679.087219 638.388062,671.266052 
	C639.752136,670.282166 642.582764,669.230774 640.930969,667.290466 
	C637.962952,663.804077 637.422302,659.229370 634.345337,655.726440 
	C613.566162,632.070679 593.068481,608.167786 572.469849,584.353394 
	C565.791565,576.632568 559.083557,568.937439 552.389221,561.230591 
	C552.236938,563.232300 552.692688,564.803772 553.196838,566.359497 
	C560.944885,590.266113 568.697144,614.171265 576.452759,638.075378 
	C581.434448,653.429932 586.375366,668.797852 591.427979,684.129089 
	C594.153503,692.399170 597.118774,694.199524 603.858643,691.299927 
M616.060181,339.545258 
	C611.690918,344.341187 607.320312,349.135986 602.952637,353.933350 
	C597.451599,359.975616 596.863525,363.737213 600.840759,370.941956 
	C602.479370,373.910400 603.912842,376.919067 604.134277,380.245789 
	C604.402710,384.278107 606.382263,387.459167 608.272949,390.792969 
	C610.209595,394.207733 612.127563,394.334747 615.360474,392.082703 
	C629.558960,382.191925 644.045227,372.713593 658.219849,362.789520 
	C668.288330,355.740326 679.662598,350.272705 687.223267,339.514069 
	C676.510315,326.403351 664.697754,314.181824 651.460632,303.628387 
	C637.295288,313.498657 627.932190,327.254150 616.060181,339.545258 
M525.945984,333.914948 
	C527.322998,334.194824 528.550232,335.587097 530.656494,334.136627 
	C531.004272,308.553650 536.300232,282.883057 534.531677,256.802826 
	C534.341858,254.003571 532.554260,253.631210 530.492554,253.443665 
	C526.033752,253.038055 521.567566,252.409317 517.104797,252.412247 
	C506.646149,252.419113 496.156342,251.509048 485.734436,253.152267 
	C484.271881,253.382858 482.584015,253.314819 482.204163,255.250656 
	C481.568146,258.492096 480.331024,261.800140 480.554047,264.995880 
	C482.104736,287.212463 483.365875,309.442291 484.433411,331.686218 
	C484.549744,334.110443 484.117340,336.991150 487.091492,339.105591 
	C487.914886,336.196350 488.158539,333.723175 487.961853,331.076508 
	C487.600037,326.207428 490.086731,324.259155 494.622589,325.765015 
	C496.288788,326.318176 497.621033,326.698456 499.246338,325.505676 
	C505.272339,321.083069 508.937225,321.798248 512.556519,328.524597 
	C513.847778,330.924377 515.497986,331.911774 517.856689,332.369659 
	C520.301086,332.844116 522.749634,333.297363 525.945984,333.914948 
M375.283997,292.813507 
	C371.113007,294.814819 369.810547,297.095306 372.926727,301.555054 
	C374.700836,304.094116 376.282379,306.857330 378.289185,309.258484 
	C392.264832,325.980194 406.219940,342.720245 420.350677,359.310455 
	C425.697815,365.588196 430.507812,372.368317 437.176910,378.544678 
	C439.482513,372.619141 442.979309,368.418091 449.348114,367.469940 
	C448.725281,365.219574 448.348816,363.617676 447.840332,362.058868 
	C441.498657,342.618347 435.274719,323.137817 428.729065,303.766052 
	C424.985321,292.686493 422.831970,280.938446 415.637665,270.719086 
	C401.659241,276.734161 388.353729,283.792145 375.283997,292.813507 
M583.647461,299.248810 
	C586.966980,289.387451 591.340515,279.812195 591.829712,268.696808 
	C576.823120,262.610260 561.202026,258.191681 545.094299,255.447800 
	C543.171753,255.120316 541.751892,256.010315 541.495911,258.010101 
	C540.992493,261.943298 538.930908,265.438171 538.942749,269.597839 
	C538.958862,275.232391 538.105164,280.866608 537.687866,286.505646 
	C536.522339,302.258820 535.442810,318.018555 534.197998,333.765350 
	C533.952881,336.866455 535.028625,338.524567 537.778931,340.023743 
	C542.944092,342.839172 547.777100,340.693085 552.580994,339.500671 
	C554.967712,338.908234 556.793274,338.296051 559.082825,339.809662 
	C563.965881,343.037781 568.854248,341.294434 570.806580,335.802124 
	C575.044434,323.880157 579.224304,311.937592 583.647461,299.248810 
M681.867798,351.293701 
	C659.254150,366.675659 636.640503,382.057617 613.825928,397.576263 
	C618.790894,404.216064 624.486389,407.595154 631.648132,405.873260 
	C639.020325,404.100800 646.299255,402.310974 653.921387,402.346191 
	C654.239441,402.347656 654.552185,402.129181 654.877686,402.073425 
	C660.025146,401.191467 665.116455,401.603363 668.868469,405.420197 
	C672.340454,408.952118 672.820190,413.421478 669.431824,417.836670 
	C671.800720,418.068573 673.245300,417.145355 674.635315,416.304993 
	C687.780823,408.357635 702.967285,404.112518 714.861572,393.789673 
	C717.278137,391.692322 717.932556,390.476044 716.615356,387.769348 
	C712.901550,380.138306 709.369507,372.406586 704.869507,365.198669 
	C700.862122,358.779724 697.293518,352.015076 691.686890,346.369263 
	C688.770752,348.706787 685.602112,349.735657 681.867798,351.293701 
M291.704468,398.306366 
	C285.152130,413.186157 281.678680,428.940887 278.534546,444.785126 
	C278.202484,446.458435 278.069244,448.359009 280.370789,448.736023 
	C285.799835,449.625336 290.240204,453.149292 295.793060,453.972931 
	C303.996643,455.189697 312.234680,456.715118 320.164429,459.089569 
	C328.659180,461.633209 334.442139,460.453491 341.413055,453.732513 
	C349.232513,446.193329 356.641724,437.653381 367.159668,432.508636 
	C365.990265,431.741333 365.477264,431.326324 364.900879,431.037842 
	C344.942322,421.048737 325.063324,410.893066 304.938934,401.249542 
	C301.109253,399.414429 296.786652,397.735687 291.704468,398.306366 
M304.609924,561.935913 
	C328.215363,550.180664 351.820770,538.425415 375.927673,526.420410 
	C372.862061,523.440247 370.769958,520.913025 367.738037,519.605652 
	C366.075745,520.853271 364.763092,522.292603 363.133667,522.970215 
	C359.346619,524.545105 355.336670,524.992676 351.991486,522.050476 
	C348.602783,519.070007 349.465973,515.706238 351.551300,512.163574 
	C353.575012,508.725433 353.409821,504.697205 354.106079,500.656403 
	C343.969788,501.469849 335.002197,505.256226 326.859406,509.574829 
	C316.969818,514.819824 307.069855,516.251343 297.351166,512.648071 
	C289.937103,509.899323 285.576019,515.655945 279.541626,515.898621 
	C278.155487,515.954407 278.190063,518.077515 278.424469,519.364929 
	C281.108154,534.104614 284.684540,548.611267 290.045502,562.630981 
	C290.556610,563.967590 291.373901,566.132751 293.063385,565.051697 
	C296.480011,562.865540 300.559906,564.015381 304.609924,561.935913 
M700.084167,561.314697 
	C706.105347,564.974670 712.762390,566.657288 719.921570,567.896423 
	C726.844177,552.821655 730.528015,536.990356 733.519470,520.958008 
	C733.908264,518.874084 732.400818,518.203003 730.786926,517.400940 
	C722.193665,513.130432 712.753845,511.908569 703.604065,509.637238 
	C700.865234,508.957367 698.769531,509.423462 697.761108,512.500854 
	C699.747314,512.713562 701.952942,512.999817 701.916321,515.314026 
	C701.862061,518.737915 702.316528,522.893494 699.186462,525.006409 
	C694.832031,527.945862 690.875000,533.410278 685.585999,532.648499 
	C680.672546,531.940796 675.674072,531.178467 670.753845,530.280640 
	C667.964417,529.771606 665.266968,528.458069 662.230042,528.172729 
	C658.193665,527.793396 656.304565,524.787292 655.739624,521.006592 
	C655.392639,518.684204 655.848267,516.409363 656.377197,514.099976 
	C656.940430,511.640778 656.605896,508.768890 654.840271,507.099548 
	C653.086426,505.441376 650.430298,506.685028 648.891052,508.063782 
	C641.175293,514.975220 632.011658,515.052795 622.529785,514.255737 
	C618.096069,513.883057 613.708252,514.247986 609.236267,516.860901 
	C639.606018,531.717712 669.512390,546.347839 700.084167,561.314697 
M588.438782,296.835846 
	C583.895630,309.864960 579.345520,322.891724 574.819641,335.926819 
	C574.349548,337.280548 573.252441,338.807770 574.735596,340.049194 
	C575.977234,341.088531 577.381592,341.735199 579.302795,341.280975 
	C586.989685,339.463501 591.372498,342.513336 592.211670,350.313354 
	C592.435364,352.392975 593.195374,353.872345 594.907776,354.718597 
	C597.239929,355.871094 598.190247,353.581451 599.286621,352.385345 
	C608.502869,342.330688 617.634827,332.198334 626.743164,322.045410 
	C633.230347,314.814209 640.455872,308.131042 644.125122,298.519440 
	C644.154480,298.583099 644.097351,298.188599 643.870056,298.005829 
	C631.219238,287.834351 617.171509,279.992096 602.495605,273.191223 
	C600.357361,272.200348 599.460632,273.171631 598.100647,274.851654 
	C593.020081,281.127960 591.611206,288.923523 588.438782,296.835846 
M727.432251,416.979523 
	C725.769592,412.106079 724.127197,407.225525 722.433594,402.362885 
	C721.817444,400.593689 721.147400,398.692474 718.613098,399.752106 
	C715.251221,401.157715 711.578369,401.472260 708.272278,403.234741 
	C698.739319,408.316681 689.138794,413.288696 679.401733,417.964172 
	C674.185486,420.468842 669.960510,423.500214 667.492615,429.027802 
	C666.152283,432.029694 666.198303,434.092804 668.784973,435.913635 
	C678.008240,442.406097 683.540405,451.900848 689.902405,461.240143 
	C703.695435,458.329803 718.184143,456.578735 731.915894,451.446991 
	C734.293213,450.558502 734.757080,449.203766 734.292908,446.840118 
	C732.375122,437.074402 730.551147,427.292236 727.432251,416.979523 
M700.337585,463.013123 
	C696.090332,463.804382 691.846741,464.615601 687.594360,465.378326 
	C685.484497,465.756836 683.784485,466.656006 683.093750,468.810730 
	C682.137451,471.793518 682.067383,475.001038 680.387756,477.830383 
	C679.476440,479.365540 680.840576,480.396301 682.287964,480.524628 
	C683.919312,480.669281 685.602783,480.506653 687.237183,480.283752 
	C692.781677,479.527557 700.298889,486.000183 700.141357,491.486328 
	C700.082153,493.545685 698.908020,494.759277 697.114502,495.673401 
	C695.835144,496.325562 694.048462,495.715454 693.133545,497.259491 
	C694.803284,498.706970 697.171143,499.807312 697.888550,501.576782 
	C699.452576,505.434601 702.647705,505.986664 705.854675,506.480835 
	C713.975830,507.732178 721.699951,510.750061 730.276184,510.304504 
	C734.658447,510.076813 735.176819,508.655182 735.665344,505.401642 
	C737.380737,493.975983 736.595398,482.486481 736.573730,471.025177 
	C736.567505,467.752045 736.804871,464.386078 735.795105,461.123871 
	C735.381897,459.788788 735.126160,458.008881 733.527039,458.501801 
	C729.399170,459.774170 725.344910,457.778809 721.205627,458.764587 
	C714.580933,460.342255 707.848999,461.469452 700.337585,463.013123 
M328.680634,464.830811 
	C311.865021,461.461029 295.403412,455.982910 277.943573,456.239166 
	C276.314056,458.798401 276.473297,461.646515 276.245911,464.442780 
	C275.303680,476.031067 275.046143,487.583191 276.133331,499.210541 
	C276.919983,507.623718 276.464447,507.660522 284.512329,507.702667 
	C285.507812,507.707886 286.503296,507.806335 287.497864,507.875244 
	C290.406403,508.076752 291.862518,506.863678 291.680573,503.812439 
	C291.443512,499.836060 292.864594,496.487671 296.400299,494.571716 
	C300.601471,492.295227 303.772003,488.988342 306.889252,485.509033 
	C309.214569,482.913757 311.607666,480.286621 314.849365,478.799164 
	C320.594330,476.163116 323.922333,470.606964 329.043243,467.224670 
	C329.735046,466.767792 330.072479,465.902466 328.680634,464.830811 
M529.601929,528.895447 
	C533.047058,532.805725 536.131714,537.056580 540.430969,540.683838 
	C537.084656,525.921265 532.718628,519.530518 524.897949,517.786194 
	C523.987976,522.258972 526.363953,525.383667 529.601929,528.895447 
M482.957397,519.908325 
	C476.814941,524.664185 477.379120,532.244446 474.932526,538.631836 
	C477.891785,536.084045 480.618500,533.431946 482.838806,530.407959 
	C485.196228,527.197205 485.558807,523.531799 482.957397,519.908325 
M502.652252,508.631378 
	C503.062531,507.870178 504.339325,507.547180 503.517395,505.305145 
	C499.187866,512.070190 487.240814,511.196136 488.574341,523.479553 
	C494.114319,518.876404 497.833893,513.652832 502.652252,508.631378 
M476.077759,490.566864 
	C477.557434,486.355194 474.357269,485.079437 471.575562,484.546387 
	C468.475189,483.952240 465.574036,485.092590 464.421295,489.023285 
	C468.284271,490.125641 471.769745,491.431305 476.077759,490.566864 
M498.942963,501.447754 
	C497.658051,501.728851 496.385162,502.160278 495.086090,502.264252 
	C490.252289,502.651031 489.694336,505.860077 489.388306,510.681671 
	C493.444336,508.140045 496.664062,506.204895 499.787445,504.125031 
	C501.050293,503.284119 501.777374,502.151703 498.942963,501.447754 
M519.137573,504.197357 
	C517.606201,502.397064 515.922119,501.614990 513.710388,503.138306 
	C514.405212,505.386505 516.152771,506.168091 517.747437,506.842072 
	C519.999695,507.793915 519.752930,506.173157 519.137573,504.197357 
M495.940002,461.695892 
	C496.419312,460.845642 497.059753,460.004974 496.112152,459.059265 
	C491.905182,461.619812 491.610687,462.236847 492.087128,467.367554 
	C493.212769,465.688965 494.374878,463.956024 495.940002,461.695892 
M514.238159,510.107788 
	C515.671387,512.807068 517.448608,515.181213 520.600220,517.254639 
	C520.772400,512.273926 517.207336,511.458344 514.238159,510.107788 
M494.571991,353.196381 
	C496.796478,349.788696 494.246796,348.163849 491.979706,346.420746 
	C492.921600,348.725525 491.502319,351.727997 494.571991,353.196381 
z"/>
<path fill="#000000" opacity="1.000000" stroke="none" 
	d="
M489.462158,846.769165 
	C473.838257,846.446350 458.841766,844.420044 443.873444,842.249817 
	C433.859314,840.797852 429.411713,833.924438 430.303558,823.800293 
	C431.504456,810.167175 435.574463,797.429993 440.922638,785.009460 
	C444.252625,777.275940 448.870453,774.363403 457.380005,774.834961 
	C464.012207,775.202393 470.628784,775.981262 477.228760,776.773438 
	C489.349731,778.228516 501.515259,777.482056 513.660461,777.742920 
	C519.623657,777.870911 522.447083,780.483093 523.038696,785.955383 
	C523.599182,791.139893 521.008362,794.033813 515.720032,794.409363 
	C499.736969,795.544495 483.769562,794.941772 467.801514,794.113220 
	C460.095001,793.713379 458.722473,794.666687 456.143799,801.986084 
	C454.475372,806.721741 453.177368,811.507996 453.251923,816.590149 
	C453.338440,822.488464 455.607544,825.802856 461.442322,826.694153 
	C472.633301,828.403687 483.967651,828.502991 495.264465,828.998657 
	C502.912140,829.334351 510.544525,829.876709 518.209961,829.583801 
	C522.404907,829.423462 523.918091,831.959045 524.471130,835.792908 
	C525.709106,844.374268 524.801941,845.598511 516.333435,846.485046 
	C507.532928,847.406250 498.738525,847.662354 489.462158,846.769165 
z"/>
<path fill="#000000" opacity="1.000000" stroke="none" 
	d="
M321.986755,784.005859 
	C316.440674,789.213745 315.500977,789.658081 309.705994,785.654602 
	C292.614777,773.847229 277.485382,759.810181 264.584717,743.529907 
	C259.177917,736.706604 259.390472,730.915100 264.371460,723.763489 
	C271.770233,713.140625 281.109009,704.394531 291.359833,696.560120 
	C295.407288,693.466675 299.214447,694.646545 302.938110,696.945007 
	C310.048004,701.333496 316.044983,707.193420 322.733948,712.141296 
	C331.034729,718.281677 339.373138,724.371643 347.720245,730.449097 
	C351.667908,733.323425 351.980286,736.795471 349.865112,740.951294 
	C347.036316,746.509033 343.474304,747.789673 338.115570,744.457764 
	C329.763092,739.264526 321.989929,733.236206 314.251526,727.175903 
	C310.580414,724.300903 306.882416,721.459656 303.237274,718.552124 
	C300.643707,716.483398 298.272858,716.776428 295.487335,718.457092 
	C282.521729,726.280029 281.585541,730.764038 290.712616,742.656616 
	C299.211273,753.730408 309.883362,762.546021 320.663544,771.205444 
	C326.565643,775.946411 326.965424,777.500183 321.986755,784.005859 
z"/>
<path fill="#000000" opacity="1.000000" stroke="none" 
	d="
M653.951172,772.744263 
	C660.321289,776.148438 660.756165,781.491272 655.139893,785.028625 
	C650.648865,787.857300 645.895752,790.269775 641.258545,792.866211 
	C642.096252,800.549988 643.835327,801.538330 650.433533,798.257446 
	C662.687744,792.164185 674.054565,784.543701 685.912476,777.771545 
	C691.907532,774.347717 697.471619,776.960205 699.151001,783.650269 
	C699.773010,786.128235 698.475525,787.803772 696.869141,789.350586 
	C693.248718,792.836731 689.062439,795.565552 684.892639,798.329224 
	C671.253296,807.368896 657.056641,815.355408 641.790466,821.340454 
	C634.191284,824.319641 632.277527,823.676575 629.091797,816.155762 
	C622.600098,800.829895 616.205750,785.460449 610.000000,770.017029 
	C607.210327,763.075012 608.186218,760.821533 614.938171,757.865784 
	C629.146545,751.645813 642.955566,744.647278 656.433960,736.996521 
	C660.238892,734.836670 663.402283,733.966858 666.018494,738.644958 
	C668.939026,743.867249 668.689087,746.318848 663.546021,749.466553 
	C654.173950,755.202576 644.670532,760.730896 635.117188,766.161499 
	C628.270569,770.053345 628.186462,769.923645 631.832886,776.634888 
	C632.460571,777.790039 633.188354,778.890686 634.005798,780.240967 
	C640.808044,778.258911 646.740234,774.314026 653.951172,772.744263 
z"/>
<path fill="#000000" opacity="1.000000" stroke="none" 
	d="
M717.678467,691.262268 
	C722.611511,692.454529 725.176331,696.122437 727.857727,699.432739 
	C729.858398,701.902588 728.105835,705.879517 724.603699,706.031921 
	C714.580261,706.467773 708.689819,713.659851 701.801514,719.199280 
	C698.974304,721.472778 696.306824,724.064819 694.482056,727.325073 
	C693.478333,729.118347 692.538574,730.995728 694.150330,732.857666 
	C695.587341,734.517822 697.461792,734.811218 699.610291,734.235535 
	C705.644348,732.618469 710.929565,729.467102 716.243164,726.351440 
	C721.834717,723.072754 727.220886,719.364746 733.371338,717.182129 
	C739.985107,714.834961 742.488220,715.830139 746.335815,721.743408 
	C753.514771,732.776489 753.117615,736.796936 744.284485,746.774170 
	C735.100891,757.147217 725.371216,766.914551 714.024719,774.947449 
	C709.089722,778.441223 706.454712,778.070740 702.483337,773.421021 
	C701.296021,772.030884 700.145203,770.590271 699.144714,769.063293 
	C695.858337,764.047363 697.355347,761.041443 703.360046,760.684021 
	C706.279114,760.510315 708.926636,759.536133 711.364502,758.121765 
	C718.493103,753.985779 724.525818,748.511658 729.843506,742.257019 
	C731.793091,739.963989 733.002197,737.261292 730.617615,734.617859 
	C728.231323,731.972534 726.404297,734.779358 724.579956,735.785583 
	C718.314758,739.241211 712.318237,743.227600 705.896240,746.346497 
	C689.803162,754.162170 681.392212,748.341370 674.415710,734.571106 
	C673.209717,732.190735 673.418335,729.766479 674.928711,727.460266 
	C676.770569,724.647705 679.038574,722.237183 681.525879,720.002747 
	C690.192383,712.217346 698.827209,704.396545 707.517761,696.638123 
	C710.358704,694.101807 713.142334,691.371521 717.678467,691.262268 
z"/>
<path fill="#000000" opacity="1.000000" stroke="none" 
	d="
M607.549805,814.407227 
	C616.134155,811.829346 618.059692,812.302124 620.630371,817.389771 
	C624.466614,824.981995 623.514771,828.301025 615.546570,831.211304 
	C597.837463,837.679382 579.546570,841.916992 560.837830,844.295105 
	C555.237488,845.006958 549.721924,846.446167 544.009460,846.220459 
	C538.920532,846.019409 537.070740,844.292236 536.684937,839.397461 
	C535.339966,822.337097 534.915466,805.209900 532.960083,788.192932 
	C532.790039,786.712646 532.868469,785.196594 532.915466,783.699768 
	C533.114868,777.347595 535.044983,775.292542 541.203796,774.810364 
	C546.342529,774.408081 547.941528,775.832642 549.205505,782.081238 
	C551.674622,794.287659 554.107788,806.501465 556.566956,818.709900 
	C557.842041,825.040222 558.302734,825.108887 564.898499,824.269348 
	C579.322021,822.433655 593.124023,818.006592 607.549805,814.407227 
z"/>
<path fill="#000000" opacity="1.000000" stroke="none" 
	d="
M378.078247,760.088257 
	C379.646423,767.036316 382.708862,772.970093 385.453857,779.027100 
	C386.934204,782.293579 389.236450,783.288696 392.752899,782.084656 
	C401.022034,779.252930 408.633209,775.252075 415.606201,769.993530 
	C421.157562,765.807129 434.444794,766.358521 439.674042,771.063049 
	C442.729248,773.811646 441.295074,776.353821 438.530914,777.941528 
	C426.120239,785.069946 413.898224,792.791260 400.060791,796.796814 
	C393.174530,798.790222 389.157532,801.949158 388.091309,809.199036 
	C387.519379,813.087646 385.692596,816.790649 384.443268,820.581055 
	C383.140472,824.533875 380.464661,825.851807 376.680878,824.252991 
	C372.393799,822.441406 368.156586,820.479431 364.032837,818.324158 
	C360.807770,816.638611 360.205383,813.996460 362.083405,810.774536 
	C364.765839,806.172668 367.207062,801.423828 370.031525,796.913208 
	C372.200623,793.449280 371.538727,790.651062 369.636597,787.241272 
	C363.458282,776.165527 358.945068,764.359436 355.329346,752.205994 
	C354.500977,749.421631 354.556885,746.592285 354.706818,743.780518 
	C354.944214,739.328735 357.209808,738.025818 361.441589,739.605774 
	C370.842010,743.115540 377.060669,749.218689 378.078247,760.088257 
z"/>
</svg>